PathFileType	3	(X/Y/Z)	results
DataRate	CameraRate	NumFrames	NumMarkers	Units	OrigDataRate	OrigDataStartFrame	OrigNumFrames
30.0	30.0	4	85	mm	30.0	183	243
Frame#	Time	head			nose			neck			shoulder_r			elbow_r			wrist_r			shoulder_l			elbow_l			wrist_l			hip_r			knee_r			ankle_r			hip_l			knee_l			ankle_l			heel_r			heel_l			mtoe_r			ltoe_r			mtoe_l			ltoe_l			asis_l			asis_r			psi_r			psi_l			mhnd_r			lhnd_r			mhnd_l			lhnd_l			l_lat_knee			r_med_wrist			l_lat_ankle			r_med_ankle			r_lat_knee			xiphoid			l_med_ankle			r_med_knee			l_med_elbow			navel			r_lat_elbow			r_lat_wrist			l_med_wrist			l_lat_elbow			l_med_knee			r_med_elbow			r_lat_ankle			l_lat_wrist			chin			T10			r_eye			l_eye			l_ear			r_ear			spinal_cord_8			spinal_cord_12			spinal_cord_27			spinal_cord_33			up_arm_r_0			up_arm_r_5			up_arm_l_0			up_arm_l_5			front_torso_11			front_torso_7			front_torso_4			front_torso_1			front_torso_10			thigh_r_2			thigh_r_3			thigh_l_1			thigh_l_5			shank_l_0			shank_l_4			shank_r_1			shank_r_2			foot_r_1			foot_r_3			foot_r_5			foot_r_6			foot_r_7			foot_l_1			foot_l_7			foot_l_0			foot_l_4			foot_l_5			foot_l_6			
		X1	Y1	Z1	X2	Y2	Z2	X3	Y3	Z3	X4	Y4	Z4	X5	Y5	Z5	X6	Y6	Z6	X7	Y7	Z7	X8	Y8	Z8	X9	Y9	Z9	X10	Y10	Z10	X11	Y11	Z11	X12	Y12	Z12	X13	Y13	Z13	X14	Y14	Z14	X15	Y15	Z15	X16	Y16	Z16	X17	Y17	Z17	X18	Y18	Z18	X19	Y19	Z19	X20	Y20	Z20	X21	Y21	Z21	X22	Y22	Z22	X23	Y23	Z23	X24	Y24	Z24	X25	Y25	Z25	X26	Y26	Z26	X27	Y27	Z27	X28	Y28	Z28	X29	Y29	Z29	X30	Y30	Z30	X31	Y31	Z31	X32	Y32	Z32	X33	Y33	Z33	X34	Y34	Z34	X35	Y35	Z35	X36	Y36	Z36	X37	Y37	Z37	X38	Y38	Z38	X39	Y39	Z39	X40	Y40	Z40	X41	Y41	Z41	X42	Y42	Z42	X43	Y43	Z43	X44	Y44	Z44	X45	Y45	Z45	X46	Y46	Z46	X47	Y47	Z47	X48	Y48	Z48	X49	Y49	Z49	X50	Y50	Z50	X51	Y51	Z51	X52	Y52	Z52	X53	Y53	Z53	X54	Y54	Z54	X55	Y55	Z55	X56	Y56	Z56	X57	Y57	Z57	X58	Y58	Z58	X59	Y59	Z59	X60	Y60	Z60	X61	Y61	Z61	X62	Y62	Z62	X63	Y63	Z63	X64	Y64	Z64	X65	Y65	Z65	X66	Y66	Z66	X67	Y67	Z67	X68	Y68	Z68	X69	Y69	Z69	X70	Y70	Z70	X71	Y71	Z71	X72	Y72	Z72	X73	Y73	Z73	X74	Y74	Z74	X75	Y75	Z75	X76	Y76	Z76	X77	Y77	Z77	X78	Y78	Z78	X79	Y79	Z79	X80	Y80	Z80	X81	Y81	Z81	X82	Y82	Z82	X83	Y83	Z83	X84	Y84	Z84	X85	Y85	Z85	
183	6.1	244.03710267188853	1435.594846324558	-379.6165243362361	207.0750556288059	1270.5305324995647	-508.3859420731155	231.0723277354279	1144.1329665599292	-356.6646532499397	405.8181029000213	1103.5850714829517	-418.3924106685325	555.9130789768182	973.1366163654076	-589.9494887462788	359.8937583455314	1067.0928235561748	-651.9293311569764	62.705198122320446	1092.643860904844	-370.10851996744697	-61.834157780546015	1002.9670096292931	-590.4802464535856	157.42886658975007	1082.515119793	-644.6483742298657	360.9594464041892	697.363016059795	-108.81375016484446	409.3643435821708	436.86007833907394	-397.6368928388086	478.1516527407369	103.09119672056049	-203.92517992663846	156.38411557793398	693.1921311082403	-82.55500044491154	63.58332575806604	438.3132642283106	-377.69899460842964	57.6525219926756	105.01431387335435	-184.72693265278096	483.3018658715458	50.31334235785391	-168.79486468367116	52.45759110434966	46.362980452407484	-140.67895417871063	495.4226484067936	30.291848845055664	-393.9628389606479	557.7505066575429	30.50372060551256	-329.4808301854544	58.80215252284859	41.074620167151004	-369.6313681060148	-19.810006991673212	24.497305872574177	-311.61904896782545	100.69493493786757	712.8469919035205	-153.2042655612862	400.8404133079454	718.8909341022684	-186.95589383755484	309.94345606005226	827.2586190830324	-79.82489300399808	207.4327565449644	820.8498266608004	-71.0701471252973	302.3928455118093	1078.237615565083	-696.1008877158038	288.5133479148431	1115.9006962431179	-660.6340841518783	218.73748031651937	1094.7128754971136	-688.31856359784	237.91869984269056	1118.8417483984042	-644.6650914139502	18.512057222762362	450.59796610231604	-363.14956534045575	371.24808919145113	1054.6430155947196	-674.8383982367026	6.497071298535058	99.233644742034	-166.55612566658706	450.748490561757	78.89840226566963	-216.55559200844522	451.8339270836803	437.01331494479655	-394.6217054802709	233.5912173477031	950.3185320724674	-359.7195133792329	84.69912646471381	85.56210352441235	-194.83445402387508	368.36988220088807	430.01964599299725	-396.83501636933124	-56.0805049509831	972.4767682640411	-570.4598859489987	241.45704023214776	751.1091547062333	-268.91326917962994	568.4002676622422	1010.5572222393091	-597.4475660928078	359.2678907273139	1069.1529055218657	-620.6426155655919	140.23083542280324	1079.8490935701816	-673.0551491679913	-69.74007282917852	1043.021632905149	-588.6477327792139	111.79960665066905	447.80739137542383	-383.5692232508407	538.0640715691363	944.5782112718915	-574.5873117423272	527.131247989204	99.83640354713175	-189.69136277874446	153.62563627140858	1090.7213561705757	-613.8845582521893	213.76578829861347	1193.723574648161	-495.65979611362167	249.99886678597892	1053.152508097439	-194.3473050773157	238.45809629584548	1302.8880423616374	-515.3188993086619	172.56949951319962	1300.5341309605274	-494.9248804031933	152.88189458967943	1286.7180976022826	-382.8616811978106	317.09629855343627	1289.2758453959682	-431.23216733733705	231.95002025755795	1219.2938636455594	-341.9444061668029	242.04291864803778	1140.9470796114351	-241.42806177766724	269.34422424211243	912.6634558157639	-137.90394550321255	249.27753471842485	1038.510778358842	-201.14814281685662	454.50962431853543	1055.9203310371304	-538.1345296502443	526.0686934975993	1026.582321718043	-494.67245728245325	25.52823285093852	1101.6260794848915	-418.7529450993096	-36.145218804593206	991.3121727436834	-509.0604388009572	293.38842352592167	794.5856139798381	-252.7152432675509	236.7936048212476	859.4870764736725	-345.4844265655024	163.65635892851333	986.8942729526451	-379.27957625539204	169.26998679120462	821.3730636463599	-259.77412074467617	310.4034613907158	1020.1206635038532	-421.03460477789247	369.43402834010226	554.3178619115155	-262.58134252268457	467.9662720932411	542.162135719946	-283.35893665558496	138.47364004536544	505.17907955866326	-289.4412102513273	36.783883820669026	658.5829825565738	-159.5628729559827	-8.48463937388627	187.57598284432297	-230.0275877184093	107.75463715672903	302.4098917606998	-313.97075992792503	493.97996711643367	311.69705561564433	-303.3003171042599	408.63086475496846	248.57741583074989	-307.80226291983644	517.6917521604029	24.50662557892113	-373.9702521714443	540.787065532257	27.740537910815583	-355.758242102714	477.5759537190005	45.221417964076586	-312.6659602958252	513.5640888241148	53.487465362280304	-297.2919494093264	544.1616225239845	41.31142087189221	-282.5067574705481	10.163526003354747	26.23420328862589	-342.4424600574289	-8.189264452841412	57.999195219694414	-236.39405474304715	-4.736565042301883	25.564295132339797	-334.2258170471516	28.479890435317387	27.039720752143328	-351.8825496146329	21.600407239103355	43.82866460403521	-292.99909867452726	52.28617749919058	58.2528909647814	-263.6794500606666	
184	6.133333333333333	246.2204896408174	1483.1159905272448	-370.61315376467303	206.66965918481955	1318.977980971123	-499.796857046555	231.50750146912736	1187.5813027750066	-348.1126585472548	397.61106574905295	1148.7070904259112	-411.05395527129275	553.7552011890903	1014.5965392024414	-574.1812103295518	363.97013667889945	1115.6428691008732	-643.9243985173625	60.088572905546314	1136.0778223302325	-360.7125445268997	-62.665512653626976	1047.6808698064476	-582.597875094106	155.9896491922443	1126.4815009767453	-640.2064029240395	363.46119421069	731.5704016837063	-114.39454790007125	409.5441018104288	446.5393396764417	-377.6854469437306	478.70930881934754	103.25562204883276	-201.5319590171565	158.51366106345944	727.5317304528322	-91.19579809843938	68.53086081218537	446.78691058240605	-359.38739413650586	55.4731765829707	104.90594054435526	-182.44536791083684	483.51582026617075	49.628534398572356	-168.49677166745064	49.306320082890565	45.24887088358186	-140.4884301801242	495.2699339006121	30.77458644207913	-393.78494195357433	557.5851321260168	29.394555642068656	-329.3051168563237	56.32041071017281	42.96307973646593	-369.4709748177962	-22.504929409145827	25.81916753143078	-311.91439244941097	103.91489539389	748.577204011669	-162.29417982946993	404.5364765227432	754.3438490534271	-191.55884451497042	312.36854848393125	861.0868075454499	-83.88397661155655	209.72434854511752	854.8217964110172	-76.7369796764242	308.9482350218221	1129.1343956474993	-690.5318745694232	294.7047419754775	1166.8866973064028	-655.3050541048918	216.64449199896214	1138.4740891482677	-684.8358178181517	236.5937693186795	1162.531062423279	-641.4879724856114	22.86299171489292	457.8749050709784	-347.08256143175333	375.94596019260194	1103.0486086494118	-666.434577471527	4.212217335012314	99.37435360626418	-164.4957132962921	450.9930108435517	79.86999336441708	-214.97335432612087	452.14106971526456	445.5456714081612	-375.2624431695271	235.26330520520997	994.0736204896126	-359.08456931128654	82.08855775383955	85.37644048717335	-193.5038217738043	368.6034185422281	439.4264909267398	-377.28071109614984	-57.05773101270209	1017.0729936470402	-562.7161026327244	244.72690815321354	791.3813746821882	-276.5114811123145	567.7516981327437	1051.6633576942456	-580.7082180154454	361.9810307990778	1117.4132306653107	-612.6769426496104	138.3372885305428	1123.8784068369293	-668.3389978664516	-70.60241580122641	1087.720826859563	-580.5874391951	116.04806213816835	454.700388576404	-367.90998830072874	534.2003548729748	986.513772115939	-560.069788447121	527.8467653279895	99.02574082202598	-188.12246787939986	152.69966490463412	1134.6966966146565	-609.3858608479266	213.01359735582542	1242.0632404641526	-487.5532215465781	251.58343325525595	1090.1806981573022	-189.7060349379687	238.17708101491996	1351.1701412111222	-506.9324558802495	172.52068156241913	1349.1301073391114	-485.7702356583147	154.07212243162255	1334.845585553111	-373.5550482509552	317.7155093718208	1336.6081191014375	-423.85765115133927	231.95252380637064	1262.0832035449316	-330.3394988434681	242.89889370900738	1179.768791288297	-233.13798045735945	272.0288228397151	947.6360277300902	-139.10689973135197	250.93272944880468	1075.8241969062663	-197.09653018758738	451.91306324930343	1100.1192560149086	-527.979068967108	519.8798771337459	1068.507661968032	-480.5281444313627	23.293965655689828	1145.3384552397936	-409.5948997203828	-37.61681954853036	1035.5464410769077	-501.04874573109083	296.4333476826583	834.5012183571946	-258.71905806615405	239.09978140822696	902.7600384484628	-348.5794518212768	165.0268819869926	1030.9564125776064	-376.91066826957194	172.12126103049903	860.7378722891566	-264.280051770878	311.41102675838596	1066.8226117815598	-417.7455238618042	370.7203173329844	575.2296151738744	-254.69091538263638	469.1721085940552	560.0296504785928	-273.77701050376163	142.3799490603008	520.9434803576405	-279.69671256427563	39.00368015242045	684.0479858824174	-163.71303363125733	-8.881724510116095	190.933882626042	-223.68057777767822	109.77906180469368	307.0888964707671	-302.245727531591	494.57507681959237	316.40601430907947	-290.73703440789825	408.777238275077	254.07086891637115	-297.2089944331358	517.4226525547733	24.440654694423827	-373.829399325084	540.5741017086038	27.11926466821109	-355.59853400980126	477.70539723109846	45.53873290959282	-312.3964534759467	513.8438015090665	53.0194211184528	-296.9728138654182	544.2016059889218	40.168915956800106	-282.2644742967825	7.564552066668708	27.887248200886358	-342.62369869616424	-11.02607164080864	58.29739218258299	-236.22014728544886	-7.361573819896147	27.146356258452354	-334.46057689056136	25.91090722288733	28.771320286333214	-351.998293314928	18.897253090641005	44.79977979484252	-292.9190764885169	49.53089116888689	58.75948402218581	-263.3213827713149	
185	6.166666666666667	249.45663623263252	1529.2654905805593	-360.6620173315092	206.74565807307468	1366.76909244689	-490.91053556747124	233.65368431390516	1231.0253252228013	-337.8311536471979	388.1300153776389	1194.8934514095654	-399.58067999023206	547.4959405738958	1053.988460599088	-553.6112541489435	370.7688122427458	1160.7318592689467	-645.623279166945	62.04835012812164	1177.4307841819364	-349.9377219390725	-60.56704869460696	1091.5207752789743	-572.8740828130129	155.590676398351	1167.6693717587436	-642.2685414549835	365.909390969967	765.091139988647	-120.72817629153919	409.8309750250198	457.2314717343447	-355.7634449671984	479.1327481947868	104.47704752564452	-199.49710695983708	160.58184294503596	761.2887007478336	-101.12910287735617	74.51529509732791	456.0706524114513	-338.57225280139585	54.61662004092568	105.24507760802187	-180.81598436404678	483.46960562911994	50.1801531506504	-168.72187126048738	47.65276004455123	44.61301254236848	-141.25563453593978	495.57094229703387	31.011985611375152	-393.96513800953613	557.6256104747116	28.312114391359174	-329.27615044437056	54.99590895673616	45.07685066172688	-370.2388022044213	-23.862339181727073	27.02946342220482	-313.00440119499143	107.28197765002795	784.2536417264723	-172.6179334742349	408.3788404539336	789.5589722516806	-196.6084005865775	314.7505575123851	894.0313628114953	-87.97080318701317	211.9779263995885	887.9937377890049	-82.7272272101294	321.8631030443779	1175.4078489305984	-698.2971314061593	305.2576264681186	1214.2990226884183	-665.4219583091127	213.92999953255529	1178.827881821091	-690.087238950645	236.40585677184828	1202.8098321962207	-647.9511591463822	28.192011051751287	465.68231116172655	-328.46968013110484	384.68318196963025	1147.2931372329904	-666.4687814838231	3.297817415882726	99.81516580192451	-163.00107339694264	451.1293134871989	82.00055685499518	-213.86258370133066	452.4958543845412	455.45090397282496	-353.8634031973927	238.1028392985588	1038.2342962503835	-357.6184262905363	80.77740299527245	85.7989867600611	-193.0443233821598	368.9025817394678	450.1241760160444	-355.82495270139214	-55.07317271957149	1060.7063065035604	-553.2817369864389	248.32354307293798	832.0223043912368	-284.377912817666	563.7101827353004	1090.3395673863035	-558.9167395749508	365.3735862362989	1163.1439373400094	-614.8244539264339	136.4484733460125	1165.166741020844	-669.4188220413444	-68.40178765999967	1131.560193071966	-570.4873836203783	121.22601774967637	462.3654584961531	-349.94032755667087	525.7049263088842	1026.8482519339518	-541.0125708788354	528.3999569351976	99.27514397881842	-186.9321428801647	154.0248516619015	1176.027420966339	-611.3507398483772	212.39887097618066	1289.6804714080338	-479.44689045659004	254.1322995001506	1126.574241522331	-184.0352608082772	238.51627910175205	1398.690549502846	-498.09508850345964	173.07628946836556	1397.149387913399	-476.2319535561457	155.69968668750616	1382.0144604823695	-363.95714414201336	318.7947400280067	1382.5111261225184	-416.03759509458627	233.83619626764818	1304.640168861941	-316.6784244038959	245.1108813243661	1218.018092733318	-223.3343401788928	275.1075827708296	981.9448638470856	-139.99380180535255	253.53088338592144	1112.5675085823977	-192.0727787495513	447.29933802068746	1144.271439143746	-513.2352880365828	510.4375490741314	1109.0261330003916	-461.8377627370512	25.360046853819124	1187.2636908809152	-398.7882024128678	-35.68678972580729	1078.5277807113048	-491.40570433067546	299.88017538267866	874.4722858260798	-264.64570903090276	242.27163257802317	946.5510581478683	-351.2898149142829	167.7281793912165	1075.6377554333544	-373.7322025965129	175.47257703869352	900.4859605042759	-268.9838828819737	313.9687796993135	1113.8577853757176	-412.91260139183726	372.01613122979757	596.5206488455266	-246.12715700105952	470.3751872356393	578.5219094979119	-263.1452250394778	146.99344672541164	537.2790834066188	-268.7794632159845	41.33346856363293	708.689938875405	-167.80305945280236	-7.99217631573268	194.77775916798834	-216.96484600207916	112.91615881979084	312.5702355509226	-289.4283485968601	495.1459423394959	322.11117779804044	-277.09427665219266	408.9289788473959	260.65096316591763	-285.9318634373047	517.51541966315	24.209338069452443	-373.9339319474873	540.6578444255248	26.395184590020733	-355.62603063236116	478.05501787557444	46.17399722361259	-312.63934369104254	514.2939282775043	52.880922867908914	-297.09610915140183	544.319103344825	39.38535627642919	-282.2830887583568	6.244506471058724	29.546886380515247	-343.64347086959015	-12.580817543037165	58.63462735253889	-236.91196474069653	-8.690984422375918	28.66734245530192	-335.51129854475556	24.601517904745034	30.593526185216017	-352.98038853974526	17.45992221110009	45.896975646642915	-293.7245131782686	48.01275554387913	59.587694051650665	-263.9183862528298	
186	6.2	253.09020399182901	1572.2284001099686	-351.02993254434153	207.8645578947353	1410.9567312014215	-481.95003530544653	237.2101356078691	1271.8633851062295	-326.83698363534154	379.332298604575	1238.458930152996	-384.0196493353987	544.1386328179881	1099.8769116452484	-534.3892894695596	375.81621928678544	1200.8130867649268	-646.5155462113275	68.62786415899141	1214.915726849566	-342.0443504141866	-56.04419266948567	1130.5107287302505	-564.4142251646008	156.07585243392143	1206.2069040705937	-645.7378825933357	368.0229591471733	796.7063093534227	-128.48615837150422	409.974317814312	467.4070771657946	-331.2812356393177	480.00733920263207	105.80370416827	-197.1321972172979	162.42882821711328	792.0833640038201	-112.12566008407734	81.50780408882696	465.53777011016695	-317.114329154233	56.27755575670292	106.62430567228004	-179.61472533397853	483.9723632710674	50.95790420970586	-168.80178167348674	48.878078435465596	45.26223641240452	-142.41956806800312	496.4714340941291	31.30924340448455	-393.981917495607	558.3086940040105	27.96370641615929	-329.11515460003744	56.36950301502012	47.13227483857546	-371.3907661940838	-22.33628277750259	27.938656155982454	-314.3196488999772	110.18170538982875	817.520778046035	-183.5545980423247	411.598473076746	823.86198120382	-202.80897765546044	316.22688961230483	924.3783424061706	-91.97763947559964	213.39424715365774	918.0936278528525	-88.49745000663503	332.2623378183116	1213.2407042156988	-704.2243107795474	311.72030518350016	1252.5618054749818	-674.2090122513971	211.7076892957014	1217.199724252231	-696.7170296300278	236.50847335668306	1241.2085753004717	-655.9218889266133	34.52544523636789	473.4884168645628	-308.9299473807415	392.0107425425562	1187.1645191009277	-665.4944270776655	4.9291626751153945	101.02243960684099	-161.93886262859363	451.57280975560457	84.35399159668088	-212.20333771902028	452.68058779244336	465.1529378322954	-330.05940356082453	241.93386269913157	1080.203557119572	-355.54079400043247	82.07658371562943	87.48556093487392	-193.03813382230322	369.0495412507486	460.4319615237481	-331.9613435521971	-50.187481967376215	1099.5405689231782	-545.1756619281147	251.76831141754036	870.8103635141055	-291.9027921773189	560.3627041130187	1136.3461829825383	-538.7738701645245	367.2789584488472	1203.8493323326006	-616.492378311939	135.46243772414292	1203.6944153076697	-671.7878224866296	-64.04153022118275	1170.4875723065368	-561.5630824717377	127.33112318108874	470.36924704171463	-331.39533265641927	522.0685661212802	1072.515896705896	-522.7938995788747	529.4791991037173	99.60850832986029	-185.8916186576204	156.22934396197712	1214.613803559446	-614.7940668754499	212.71869151945282	1333.746355736811	-470.94890916328734	256.65237909797395	1160.3758754688215	-177.92387614244785	239.95027079262422	1442.5626208386823	-489.1294747044965	174.61626229813209	1441.6264971576622	-466.9178764170602	157.6787886894223	1426.0512946815004	-354.6361760509415	320.485388592164	1425.0266735223586	-407.60387990820726	237.189844936222	1344.414218677258	-302.28107588371785	247.8514777003035	1253.5462498262254	-212.98962903992876	277.40915477984254	1013.861094203144	-140.50937841651862	256.11846058579954	1146.758124856501	-186.60856168265926	442.32380807207943	1189.3241132410405	-496.26405365063164	503.92921374243724	1153.7536912281892	-443.2556583051555	31.353882756252116	1225.02928022183	-390.39156793901725	-30.20068214141651	1116.8737711195263	-483.3519760134683	303.1523968578527	912.314176989036	-269.8447696974248	246.1198457880543	988.3266074431206	-353.4551353392295	171.65142802732464	1118.2917095064988	-370.4047546811786	178.7614533169888	938.4580103943366	-273.8665464481882	318.14412596808927	1158.3447288359512	-406.70671894840206	373.0749328404296	616.731739004835	-236.9381694799404	471.33257257017937	596.263231642094	-251.58568112199225	152.26556130653336	553.1265703999786	-257.9610305918057	43.68094601028481	730.6914706529968	-171.80980312675277	-4.94880287814059	199.0919256202312	-210.33564517294616	117.6755304543427	318.84958523431675	-276.41308492731974	495.9314024435739	327.4800403287038	-262.3118258353515	409.1446672721289	267.1151765460303	-272.94063270112053	518.2769512559065	24.274436447592606	-373.879275153403	541.3927417011436	26.210554031529018	-355.509716632548	478.91156204991324	46.801479125799766	-312.7278680448392	515.1846849414533	53.09747235459957	-297.09282267779133	545.0047131598392	39.265715518079176	-282.1758709622727	7.763454235498089	30.945055333469043	-344.9216024286396	-11.433123993252165	59.21610967750659	-238.03688523194566	-7.167591815223563	29.863972487981325	-336.8055790071926	26.114917039269216	32.23558218431456	-354.238882538499	18.77577161954542	47.119885494472314	-294.9004364954472	49.165443159502374	60.95223031493829	-264.9930678739449	
